<svg width="29" height="35" viewBox="0 0 29 35" fill="none" xmlns="http://www.w3.org/2000/svg">
<path d="M2.74694 35C2.04995 34.7402 2.30278 34.1318 2.23445 33.5781C1.96112 33.5781 1.68096 33.5645 1.4008 33.5781C0.519321 33.6465 0 32.9561 0 32.1768C0.0204995 21.957 0.0204995 11.7373 0 1.51074C0 0.751953 0.259661 0.259766 0.970311 0C9.9901 0 19.0099 0 28.0297 0C28.8155 0.280273 28.9932 0.806641 28.9932 1.44238C28.9863 11.71 28.9795 21.9775 29 32.252C29 32.9287 28.467 33.6602 27.6675 33.5781C27.3805 33.5508 27.0799 33.5713 26.7792 33.5713C26.6836 34.0977 26.9637 34.7402 26.2599 35C25.5971 35 24.9411 35 24.2783 35C23.5813 34.7334 23.8546 34.0908 23.759 33.585C17.5818 33.585 11.4251 33.585 5.22738 33.585C5.22738 33.79 5.21371 33.9814 5.22738 34.1729C5.26155 34.5762 5.09755 34.8496 4.72856 35C4.06574 35 3.40975 35 2.74694 35ZM13.3657 31.165C13.3657 23.8369 13.3657 16.543 13.3657 9.25586C9.70311 9.25586 6.06786 9.25586 2.43261 9.25586C2.43261 16.5703 2.43261 23.8643 2.43261 31.165C6.08836 31.165 9.71678 31.165 13.3657 31.165ZM15.8051 31.1445C19.4199 31.1445 22.9936 31.1445 26.5742 31.1445C26.5742 23.8301 26.5742 16.543 26.5742 9.24219C22.98 9.24219 19.3994 9.24219 15.8051 9.24219C15.8051 16.5498 15.8051 23.8369 15.8051 31.1445ZM13.3657 6.8291C13.3657 5.33887 13.3657 3.87598 13.3657 2.41309C9.70311 2.41309 6.06786 2.41309 2.43261 2.41309C2.43261 3.89648 2.43261 5.35938 2.43261 6.8291C6.08153 6.8291 9.71678 6.8291 13.3657 6.8291ZM15.8051 6.80859C19.4199 6.80859 23.0005 6.80859 26.5742 6.80859C26.5742 5.33203 26.5742 3.87598 26.5742 2.41309C22.98 2.41309 19.3994 2.41309 15.8051 2.41309C15.8051 3.88281 15.8051 5.33887 15.8051 6.80859Z" fill="#323232"/>
<path d="M11.7667 18.8399C11.7667 19.6739 11.7736 20.501 11.7667 21.335C11.7531 22.3194 10.7828 22.8936 9.94227 22.4151C9.58011 22.21 9.38195 21.8887 9.37512 21.4717C9.36145 19.7559 9.36145 18.0332 9.36145 16.3174C9.36145 15.6407 9.85344 15.1211 10.4821 15.1143C11.1996 15.1006 11.7394 15.5791 11.7531 16.2832C11.7804 17.1309 11.7599 17.9854 11.7667 18.8399Z" fill="#323232"/>
<path d="M17.165 18.7988C17.165 17.9785 17.165 17.1582 17.165 16.3447C17.165 15.6201 17.6639 15.1006 18.354 15.1006C19.0305 15.1006 19.5567 15.6338 19.5567 16.3379C19.5567 18.0127 19.5567 19.6807 19.5567 21.3555C19.5567 22.0664 19.0373 22.5928 18.3472 22.5859C17.6707 22.5791 17.1719 22.0664 17.165 21.3691C17.165 20.501 17.165 19.6465 17.165 18.7988Z" fill="#323232"/>
</svg>
