<svg width="36" height="36" viewBox="0 0 36 36" fill="none" xmlns="http://www.w3.org/2000/svg">
<path d="M0.782063 8.49897C-0.024574 7.3018 0.0502687 6.13789 0.965011 5.31483C1.78828 4.5666 3.01902 4.54166 3.9005 5.24832C4.87346 6.03812 4.98156 7.1771 4.18324 8.49066C4.3163 8.71513 4.44935 8.9396 4.64061 9.25552C5.17283 9.01442 5.76325 8.85646 6.22062 8.50729C7.02726 7.9087 7.79232 7.23529 8.49085 6.512C9.61349 5.36471 10.6447 4.12597 11.759 2.97037C12.8567 1.8314 14.129 0.91689 15.6757 0.476265C17.8212 -0.138948 19.7838 0.326618 21.5883 1.56536C23.0519 2.57131 24.1912 3.92645 25.372 5.23169C26.1204 6.06306 26.8772 6.89443 27.6838 7.67592C28.4489 8.41584 29.322 8.98948 30.4197 9.1807C30.5528 8.95623 30.6858 8.73176 30.8272 8.50729C30.0705 7.00251 30.1869 5.94667 31.2014 5.18181C32.0829 4.51672 33.3053 4.58323 34.0953 5.33977C34.9685 6.17945 35.0267 7.29349 34.2367 8.49066C34.7523 9.07262 34.8105 9.77928 34.8105 10.5275C34.8022 18.2842 34.8022 26.0409 34.8022 33.7975C34.8022 34.5125 34.5361 34.7785 33.8292 34.7785C32.9394 34.7785 32.0579 34.7785 31.1682 34.7785C30.5777 34.7785 30.3033 34.5125 30.295 33.9139C30.2867 33.4733 30.295 33.0327 30.295 32.5588C21.7629 32.5588 13.2725 32.5588 4.72377 32.5588C4.72377 33.0077 4.73209 33.4483 4.72377 33.889C4.71546 34.5125 4.44935 34.7702 3.83398 34.7785C2.93587 34.7868 2.02944 34.7868 1.13133 34.7785C0.499324 34.7785 0.216585 34.4959 0.216585 33.864C0.216585 28.5433 0.216585 23.2225 0.216585 17.9018C0.216585 15.3827 0.224901 12.8553 0.20827 10.3363C0.199954 9.6712 0.324691 9.03936 0.782063 8.49897ZM16.7319 31.0208C16.7319 21.2771 16.7319 11.5917 16.7319 1.83971C16.2994 1.97273 15.9003 2.07249 15.5177 2.22214C14.2288 2.73759 13.1976 3.61884 12.2662 4.61648C11.2184 5.7222 10.2289 6.8778 9.18938 7.99184C8.1 9.16407 6.86926 10.1534 5.24767 10.461C4.81525 10.5441 4.71546 10.7187 4.71546 11.1427C4.73209 17.6274 4.72377 24.1038 4.72377 30.5884C4.72377 30.7381 4.7404 30.8794 4.74872 31.0291C8.76527 31.0208 12.7402 31.0208 16.7319 31.0208ZM18.2869 1.88128C18.2869 11.6166 18.2869 21.3104 18.2869 31.0124C22.2951 31.0124 26.2784 31.0124 30.295 31.0124C30.295 30.7048 30.295 30.4305 30.295 30.1561C30.295 28.1026 30.295 26.0575 30.295 24.004C30.295 19.6809 30.295 15.3578 30.3033 11.0346C30.3033 10.7021 30.2285 10.5608 29.8709 10.4943C28.7815 10.2781 27.7836 9.81254 26.9687 9.05599C26.1537 8.29113 25.397 7.45976 24.607 6.66165C23.5093 5.54761 22.4532 4.3837 21.3056 3.32786C20.4823 2.54637 19.4594 2.05587 18.2869 1.88128ZM3.21861 33.2738C3.21861 33.1075 3.21861 32.9828 3.21861 32.8581C3.21861 26.6145 3.21861 20.3626 3.21861 14.119C3.21861 12.7473 3.22692 11.3755 3.21029 10.0038C3.20197 9.53818 2.91923 9.26383 2.49513 9.2472C2.07933 9.23889 1.77165 9.51324 1.72175 9.95387C1.70512 10.0786 1.71344 10.2033 1.71344 10.328C1.71344 17.8519 1.71344 25.3758 1.71344 32.8913C1.71344 33.0077 1.73007 33.1324 1.73838 33.2654C2.23734 33.2738 2.69471 33.2738 3.21861 33.2738ZM33.2804 33.2821C33.2887 33.1158 33.297 32.9994 33.297 32.8747C33.297 25.3674 33.297 17.8602 33.297 10.3529C33.297 9.60469 33.0559 9.25552 32.532 9.25552C32.0164 9.25552 31.7918 9.57975 31.7918 10.3197C31.7918 17.8436 31.7918 25.3674 31.7918 32.883C31.7918 33.016 31.8085 33.1491 31.8085 33.2821C32.3241 33.2821 32.7814 33.2821 33.2804 33.2821ZM3.21861 6.98588C3.21861 6.5702 2.91092 6.24596 2.49513 6.23765C2.07933 6.22934 1.72175 6.57851 1.72175 6.98588C1.72175 7.38494 2.04607 7.71749 2.45355 7.7258C2.89429 7.73411 3.21861 7.41819 3.21861 6.98588ZM33.297 6.97757C33.297 6.57851 32.9561 6.23765 32.5486 6.22934C32.1245 6.22102 31.7918 6.56188 31.8002 7.00251C31.8085 7.42651 32.1328 7.7258 32.5569 7.71749C32.9644 7.71749 33.297 7.38494 33.297 6.97757Z" fill="#323232"/>
<path d="M2.10421 35.0028C1.77157 35.0028 1.44725 35.0028 1.13125 35.0028C0.382825 35.0028 0.00861239 34.6204 0.00861239 33.8805C0.00861239 29.3412 0.00861239 24.8019 0.00861239 20.2709V17.9265C0.00861239 17.2198 0.00861239 16.5132 0.00861239 15.7982C0.00861239 14.019 0.0169282 12.1734 0.000296547 10.361C-0.0080193 9.56291 0.158298 8.97264 0.532511 8.48213C-0.232547 7.2517 -0.124441 6.02127 0.831881 5.15665C1.72999 4.34191 3.07716 4.30865 4.03348 5.08183C5.06465 5.92151 5.20602 7.127 4.42433 8.48213L4.7237 8.98926C4.84012 8.93938 4.95654 8.89781 5.06465 8.84793C5.43886 8.69828 5.79644 8.55695 6.09581 8.34079C6.89413 7.74221 7.65087 7.07711 8.34109 6.37045C8.90657 5.78849 9.46373 5.16496 10.0043 4.56638C10.5198 3.99273 11.0604 3.39415 11.6092 2.82882C12.8732 1.52357 14.1788 0.692198 15.6175 0.276513C17.7047 -0.322073 19.7504 0.0520434 21.7047 1.39055C23.0186 2.28843 24.0747 3.46897 25.0975 4.61626C25.2389 4.77422 25.3803 4.93218 25.5216 5.08183C26.3199 5.96308 27.0434 6.75288 27.8251 7.51774C28.6401 8.29923 29.4301 8.75648 30.3115 8.93938L30.5777 8.49044C29.8375 6.95241 29.9955 5.81343 31.06 5.01532C32.0246 4.28371 33.3551 4.35854 34.22 5.18991C35.1431 6.07947 35.2345 7.24339 34.4778 8.47381C34.9684 9.10565 35.01 9.8622 35.0017 10.5273C34.9934 16.4799 34.9934 22.5406 34.9934 28.3934V33.7973C34.9934 34.6287 34.6441 34.9862 33.8125 34.9862H33.5714C32.7814 34.9862 31.9581 34.9862 31.1514 34.9862C30.4446 34.9779 30.087 34.6204 30.0704 33.922C30.0621 33.6144 30.0704 33.3151 30.0704 32.9992C30.0704 32.9244 30.0704 32.8496 30.0704 32.7747H4.93159C4.93159 32.8412 4.93159 32.9161 4.93159 32.9826C4.93159 33.2819 4.93159 33.5978 4.93159 33.8971C4.92328 34.6287 4.56569 34.9862 3.8339 34.9862C3.25179 35.0028 2.66968 35.0028 2.10421 35.0028ZM2.46179 4.94049C1.97115 4.94049 1.48883 5.11508 1.1063 5.46426C0.274719 6.2208 0.216509 7.28496 0.956619 8.38236L1.04809 8.51538L0.948303 8.63177C0.57409 9.06409 0.407773 9.60448 0.416089 10.361C0.424405 12.1734 0.424405 14.019 0.424405 15.7982C0.424405 16.5048 0.424405 17.2115 0.424405 17.9265V20.2709C0.424405 24.8102 0.424405 29.3412 0.424405 33.8805C0.424405 34.3959 0.615669 34.5871 1.13125 34.5871C1.9961 34.5871 2.91084 34.5871 3.8339 34.5871C4.33285 34.5871 4.50748 34.4125 4.5158 33.9054C4.52412 33.6061 4.5158 33.3068 4.5158 32.9992C4.5158 32.8579 4.5158 32.7249 4.5158 32.5835V32.3757H30.5028V32.5835C30.5028 32.7332 30.5028 32.8745 30.5028 33.0241C30.5028 33.3401 30.5028 33.6394 30.5028 33.9387C30.5111 34.4208 30.6858 34.5954 31.1681 34.5954C31.9747 34.6037 32.7897 34.6037 33.588 34.5954H33.8292C34.4196 34.5954 34.5942 34.4208 34.5942 33.8223V28.4184C34.5942 22.5655 34.5942 16.5048 34.6025 10.5522C34.6025 9.74581 34.5194 9.14722 34.0786 8.6484L33.9705 8.53201L34.062 8.39899C34.8021 7.28496 34.7605 6.28731 33.9539 5.51414C33.2387 4.8241 32.1327 4.76591 31.3261 5.36449C30.3947 6.06284 30.3032 7.0106 31.0101 8.42393L31.06 8.5237L30.5278 9.41326L30.3864 9.38832C29.3719 9.21373 28.4405 8.69828 27.5424 7.82535C26.7524 7.06049 26.0206 6.26237 25.2223 5.37281C25.0809 5.21485 24.9395 5.05689 24.7981 4.89893C23.7919 3.77658 22.7441 2.61266 21.4801 1.73972C19.6091 0.451101 17.7297 0.110239 15.7422 0.67557C14.3784 1.06631 13.131 1.86443 11.9169 3.11148C11.3764 3.67681 10.8442 4.26709 10.3286 4.84073C9.78804 5.43932 9.23088 6.06284 8.65709 6.65311C7.95024 7.37641 7.17687 8.05813 6.36192 8.66503C6.02097 8.91444 5.62181 9.0724 5.23928 9.23036C5.07296 9.29687 4.90664 9.36338 4.74864 9.4382L4.58233 9.51303L3.96695 8.47381L4.03348 8.36574C4.5158 7.52605 4.89001 6.32057 3.76737 5.40606C3.38485 5.09014 2.91916 4.94049 2.46179 4.94049ZM33.4799 33.4897H31.6255L31.6171 33.2902C31.6171 33.2486 31.6088 33.2071 31.6088 33.1655C31.6005 33.074 31.5922 32.9826 31.5922 32.8828C31.5922 25.3589 31.5922 17.835 31.5922 10.3195C31.5922 10.0035 31.5922 9.04746 32.5402 9.04746C32.8146 9.04746 33.0308 9.1306 33.1971 9.28856C33.4134 9.50471 33.5131 9.85389 33.5131 10.3527C33.5131 17.86 33.5131 25.3672 33.5131 32.8745C33.5131 32.9576 33.5048 33.0408 33.5048 33.1405C33.5048 33.1904 33.4965 33.2403 33.4965 33.2902L33.4799 33.4897ZM32.0163 33.074H33.089C33.089 32.9992 33.0974 32.9327 33.0974 32.8745C33.0974 25.3672 33.0974 17.86 33.0974 10.3527C33.0974 9.97028 33.0308 9.71255 32.8978 9.57953C32.8146 9.4964 32.6982 9.46314 32.5402 9.46314C32.2741 9.46314 32.008 9.52965 32.008 10.3195C32.008 17.8433 32.008 25.3672 32.008 32.8828C32.008 32.941 32.008 33.0075 32.0163 33.074ZM3.42642 33.4814H1.54704L1.53041 33.2902C1.53041 33.2486 1.5221 33.2071 1.5221 33.1655C1.51378 33.074 1.50546 32.9909 1.50546 32.8994C1.50546 25.3756 1.50546 17.8517 1.50546 10.3361V10.2613C1.50546 10.1615 1.50546 10.0534 1.51378 9.94534C1.57199 9.39663 1.97115 9.03914 2.49505 9.05577C3.0439 9.0724 3.40148 9.44652 3.40979 10.0118C3.41811 11.0843 3.41811 12.1817 3.41811 13.2376V14.1271C3.41811 18.816 3.41811 23.4967 3.41811 28.1856L3.42642 33.4814ZM1.93789 33.0657H3.01063V28.169C3.01063 23.48 3.01063 18.7994 3.01063 14.1105V13.2209C3.01063 12.1651 3.01063 11.076 3.00232 10.0035C3.00232 9.66267 2.81937 9.46314 2.49505 9.45483C2.17905 9.44652 1.97115 9.64604 1.93789 9.97859C1.92957 10.0617 1.92957 10.1532 1.92957 10.2446V10.3278C1.92957 17.8517 1.92957 25.3756 1.92957 32.8911C1.92957 32.9493 1.92957 33.0075 1.93789 33.0657ZM16.9397 31.2284H4.54906L4.54075 31.0289C4.54075 30.9873 4.53243 30.9374 4.53243 30.8958C4.52412 30.7961 4.5158 30.688 4.5158 30.5799C4.5158 29.1001 4.5158 27.6286 4.5158 26.1487C4.5158 21.227 4.5158 16.139 4.50748 11.1342C4.50748 10.6686 4.62391 10.361 5.20602 10.2529C6.91908 9.92871 8.14982 8.79805 9.0313 7.84197C9.51362 7.32652 9.99594 6.78613 10.4616 6.27069C10.9938 5.6721 11.551 5.05689 12.1082 4.46661C13.2641 3.23619 14.2952 2.47964 15.4345 2.02239C15.7006 1.91431 15.975 1.83949 16.2661 1.75635C16.3991 1.71478 16.5322 1.68153 16.6652 1.63996L16.9314 1.55682V31.2284H16.9397ZM4.93991 30.8127H16.5239V2.11384C16.474 2.13047 16.4324 2.13878 16.3825 2.15541C16.1081 2.23854 15.842 2.31337 15.5925 2.41313C14.5114 2.84544 13.5302 3.56874 12.4159 4.75759C11.8587 5.34787 11.3098 5.96308 10.7693 6.55335C10.3036 7.0688 9.82131 7.60919 9.33067 8.13295C8.3993 9.1306 7.10203 10.3195 5.27254 10.6686C4.95654 10.7268 4.90664 10.7933 4.90664 11.1425C4.91496 16.1474 4.91496 21.2353 4.91496 26.157C4.91496 27.6369 4.91496 29.1084 4.91496 30.5882C4.93159 30.6547 4.93159 30.7296 4.93991 30.8127ZM30.5028 31.2118H18.0789V1.63164L18.3201 1.6649C19.5259 1.8478 20.582 2.35494 21.4552 3.15305C22.2701 3.90128 23.0435 4.71602 23.8002 5.49751C24.1162 5.82175 24.4406 6.16261 24.7649 6.49515C25.0144 6.74457 25.2555 7.00229 25.4967 7.2517C26.0206 7.8004 26.5611 8.35742 27.1183 8.88118C27.875 9.58785 28.8147 10.0534 29.9207 10.2696C30.4197 10.3693 30.5194 10.6354 30.5194 11.0178C30.5111 14.5511 30.5111 18.151 30.5111 21.6261V23.9872C30.5111 25.4504 30.5111 26.9136 30.5111 28.3851L30.5028 31.2118ZM18.4947 30.7961H30.087V28.3934C30.087 26.9302 30.087 25.467 30.087 23.9955V21.6344C30.087 18.1593 30.087 14.5594 30.0953 11.0261C30.0953 10.7767 30.0787 10.7351 29.8292 10.6853C28.6484 10.4525 27.6422 9.95365 26.8272 9.18879C26.2617 8.65671 25.7212 8.09138 25.189 7.54268C24.9478 7.29327 24.7067 7.03554 24.4572 6.78613C24.1329 6.45359 23.8086 6.11272 23.4926 5.78849C22.7441 5.007 21.9708 4.20058 21.1641 3.46066C20.4157 2.77062 19.5176 2.31337 18.4864 2.11384V30.7961H18.4947ZM32.5402 7.93342C32.0163 7.93342 31.6088 7.54268 31.5922 7.0106C31.5839 6.73625 31.6837 6.48684 31.8666 6.30394C32.0496 6.12104 32.2907 6.02127 32.5485 6.02959C33.0724 6.0379 33.4965 6.4619 33.4965 6.97735C33.4965 7.4928 33.0724 7.9168 32.5485 7.93342C32.5568 7.93342 32.5485 7.93342 32.5402 7.93342ZM32.5402 6.44527C32.3988 6.44527 32.2658 6.50347 32.166 6.59492C32.0662 6.703 32.008 6.84433 32.008 7.00229C32.0163 7.30158 32.2408 7.51774 32.5402 7.51774H32.5485C32.8479 7.50943 33.089 7.26833 33.089 6.98566C33.089 6.703 32.8396 6.45359 32.5485 6.44527H32.5402ZM2.47842 7.93342C2.4701 7.93342 2.46179 7.93342 2.45347 7.93342C1.93789 7.9168 1.51378 7.4928 1.51378 6.98566C1.51378 6.73625 1.62189 6.48684 1.80483 6.30394C1.9961 6.12104 2.24557 6.02127 2.49505 6.02959C3.01895 6.04622 3.41811 6.45359 3.41811 6.98566C3.41811 7.2517 3.31832 7.4928 3.13537 7.6757C2.96905 7.84197 2.73621 7.93342 2.47842 7.93342ZM2.47842 6.44527C2.34536 6.44527 2.204 6.50347 2.09589 6.60323C1.98778 6.703 1.92957 6.84433 1.92957 6.98566C1.92957 7.26833 2.17073 7.50943 2.46179 7.51774C2.4701 7.51774 2.4701 7.51774 2.47842 7.51774C2.6281 7.51774 2.76116 7.46786 2.86095 7.37641C2.96074 7.27664 3.01063 7.14362 3.01063 6.98566C3.01063 6.68637 2.7861 6.45359 2.49505 6.44527C2.48673 6.44527 2.47842 6.44527 2.47842 6.44527Z" fill="#323232"/>
</svg>
