<svg width="34" height="36" viewBox="0 0 34 36" fill="none" xmlns="http://www.w3.org/2000/svg">
<path d="M8.63349 1.04125C8.63349 3.19071 8.63349 5.3317 8.63349 7.515C10.7528 7.515 12.8393 7.515 14.9669 7.515C14.9669 9.71523 14.9669 11.8647 14.9669 14.0564C17.0945 14.0564 19.181 14.0564 21.3003 14.0564C21.3003 16.2397 21.3003 18.3807 21.3003 20.564C23.4197 20.564 25.4979 20.564 27.6337 20.564C27.6337 22.7558 27.6337 24.9053 27.6337 27.097C29.7695 27.097 31.856 27.097 34 27.097C34 27.8586 34 28.5779 34 29.2888C34 31.0828 34 32.8684 34 34.6624C34 35.5425 33.5564 35.9995 32.7103 35.9995C26.4426 35.9995 20.1749 35.9995 13.9072 35.9995C9.75888 35.9995 5.61053 35.9995 1.4704 35.9995C0.369655 36.0164 0 35.6187 0 34.4847C0 25.8954 0 17.306 0 8.72513C0 6.58414 0 4.43468 0.00821454 2.29369C0.00821454 1.4813 0.435371 1.01587 1.21575 1.0074C3.6144 0.990479 6.00483 0.998942 8.40348 0.998942C8.4692 0.998942 8.53491 1.02433 8.63349 1.04125ZM2.32472 3.40227C2.32472 13.4895 2.32472 23.5428 2.32472 33.6131C12.1165 33.6131 21.8835 33.6131 31.6506 33.6131C31.6506 32.2252 31.6506 30.8713 31.6506 29.4834C31.4617 29.4834 31.3138 29.4834 31.166 29.4834C29.6709 29.4834 28.1841 29.4834 26.6891 29.4834C25.7608 29.4834 25.3419 29.0434 25.3337 28.0787C25.3254 27.0801 25.3337 26.0731 25.3337 25.0745C25.3337 24.3891 25.3337 23.6951 25.3337 22.9589C25.1447 22.9589 24.9969 22.9589 24.8572 22.9589C23.354 22.9589 21.8425 22.9589 20.3392 22.9589C19.452 22.9589 19.0085 22.4935 19.0002 21.5795C18.992 20.5387 19.0002 19.4893 19.0002 18.4484C19.0002 17.7884 19.0002 17.1283 19.0002 16.4344C18.7374 16.4344 18.5238 16.4344 18.3102 16.4344C16.8891 16.4344 15.4598 16.4428 14.0387 16.4344C13.1104 16.4344 12.675 15.9859 12.675 15.0381C12.6668 13.5149 12.675 11.9916 12.675 10.4684C12.675 10.2907 12.675 10.113 12.675 9.9014C12.4779 9.9014 12.33 9.9014 12.1822 9.9014C10.7282 9.9014 9.28244 9.9014 7.82846 9.9014C6.71128 9.89294 6.34163 9.50367 6.34163 8.33585C6.34163 6.81262 6.33341 5.28939 6.34984 3.76615C6.34984 3.44458 6.25127 3.35996 5.95554 3.35996C4.83015 3.37688 3.71297 3.36842 2.58758 3.36842C2.50544 3.37688 2.42329 3.38534 2.32472 3.40227Z" fill="#323232"/>
</svg>
