<svg width="25" height="35" viewBox="0 0 25 35" fill="none" xmlns="http://www.w3.org/2000/svg">
<path d="M2.53358 34.8203C2.00196 34.6316 1.80948 34.2363 1.77281 33.6973C1.55283 30.3462 1.32369 26.9952 1.10371 23.6442C0.911224 20.7333 0.718741 17.8225 0.526259 14.9117C0.425435 13.3844 0.315445 11.8572 0.214621 10.3299C0.205455 10.1951 0.196289 10.0604 0.196289 9.9256C0.214621 9.43148 0.572088 9.0811 1.06704 9.05415C1.1587 9.04517 1.25036 9.04517 1.34202 9.04517C8.4822 9.04517 15.6224 9.04517 22.7626 9.04517C22.9367 9.04517 23.1109 9.04517 23.2759 9.09009C23.7066 9.20688 23.945 9.58421 23.9083 10.0963C23.7433 12.5938 23.5783 15.0914 23.4042 17.58C23.2575 19.817 23.1017 22.054 22.9459 24.291C22.7717 26.8964 22.5976 29.5107 22.4143 32.1161C22.3776 32.6371 22.3318 33.1492 22.3226 33.6703C22.3134 34.2183 22.1118 34.6316 21.5618 34.8203C15.2283 34.8203 8.87633 34.8203 2.53358 34.8203ZM3.56932 32.9965C9.24296 32.9965 14.8799 32.9965 20.5261 32.9965C21.0211 25.6027 21.516 18.2358 22.011 10.8599C15.3382 10.8599 8.72968 10.8599 2.08445 10.8599C2.57941 18.2448 3.07436 25.6027 3.56932 32.9965Z" fill="#323232"/>
<path d="M21.6077 35H2.4969L2.46941 34.9911C1.73614 34.7305 1.61698 34.1376 1.58949 33.7153C1.44283 31.4783 1.29618 29.2144 1.14036 27.0133C1.06703 25.8993 0.993706 24.7763 0.911214 23.6622C0.81039 22.2158 0.718731 20.7784 0.627073 19.332C0.526249 17.8676 0.434591 16.3942 0.333767 14.9298C0.269606 13.9685 0.205445 13.0072 0.132118 12.037C0.0954549 11.471 0.0496258 10.905 0.0129624 10.339V10.2761C0.00379661 10.1593 -0.00536922 10.0335 0.00379661 9.91673C0.0312941 9.34175 0.462088 8.91052 1.0487 8.87458C1.13119 8.8656 1.22285 8.8656 1.30534 8.8656H2.1486C9.02297 8.8656 15.8882 8.8656 22.7626 8.8656H22.7717C22.9459 8.8656 23.1384 8.8656 23.3217 8.9195C23.835 9.06325 24.1283 9.51245 24.0916 10.1054C23.9633 12.0729 23.8258 14.0673 23.6975 15.9989L23.1384 24.3091C22.9642 26.9145 22.7901 29.5288 22.6067 32.1342C22.5976 32.2689 22.5884 32.3947 22.5792 32.5295C22.5517 32.9068 22.5242 33.3021 22.5151 33.6794C22.4967 34.3622 22.2126 34.7934 21.6352 35H21.6077ZM2.57023 34.6407H21.5435C21.956 34.488 22.1393 34.1825 22.1484 33.6614C22.1576 33.2661 22.1851 32.8708 22.2126 32.4935C22.2218 32.3677 22.2309 32.233 22.2401 32.1072C22.4143 29.5018 22.5884 26.8875 22.7717 24.2821L23.3308 15.9719C23.4592 14.0404 23.5966 12.0459 23.725 10.0874C23.7525 9.66518 23.5691 9.3687 23.2208 9.26988C23.0834 9.23394 22.9275 9.23394 22.7717 9.23394H22.7626C15.8882 9.23394 9.02297 9.23394 2.1486 9.23394H1.30534C1.22285 9.23394 1.14953 9.23394 1.0762 9.24293C0.663736 9.26988 0.388762 9.54838 0.37043 9.94368C0.37043 10.0515 0.37043 10.1503 0.379596 10.2671V10.33C0.416259 10.896 0.462088 11.462 0.498751 12.028C0.562912 12.9893 0.636239 13.9595 0.7004 14.9208C0.801224 16.3852 0.892882 17.8586 0.993706 19.323C1.08536 20.7694 1.18619 22.2068 1.27785 23.6533C1.35117 24.7673 1.4245 25.8903 1.50699 27.0043C1.65365 29.1964 1.80947 31.4693 1.95612 33.7064C1.99278 34.2095 2.1761 34.488 2.57023 34.6407ZM20.7094 33.1763H3.40432L1.89196 10.6804H22.2126L20.7094 33.1763ZM3.74346 32.8169H20.3611L21.8185 11.0397H2.28609L3.74346 32.8169Z" fill="#323232"/>
<path d="M12.0752 7.69753C8.50971 7.69753 4.9442 7.69753 1.38786 7.69753C0.52627 7.69753 0.187134 7.36512 0.187134 6.51164C0.187134 5.30779 0.187134 4.09495 0.187134 2.89109C0.187134 2.20831 0.443777 1.90285 1.12205 1.75911C3.54183 1.256 5.97077 0.752898 8.39972 0.249794C8.5647 0.213858 8.73885 0.204874 8.913 0.204874C11.0028 0.204874 13.1018 0.159954 15.1916 0.222842C15.9982 0.249794 16.7956 0.483378 17.593 0.64509C19.3804 1.01343 21.1586 1.39076 22.9459 1.75911C23.6883 1.91183 23.9266 2.19932 23.9266 2.94499C23.9266 4.14885 23.9266 5.35271 23.9266 6.56555C23.9266 7.34715 23.5692 7.69753 22.7809 7.69753C19.2062 7.69753 15.6407 7.69753 12.0752 7.69753ZM2.02947 5.87378C8.73885 5.87378 15.3932 5.87378 22.0751 5.87378C22.0751 5.13709 22.066 4.41837 22.0843 3.69965C22.0843 3.46607 22.0018 3.40318 21.7818 3.35826C20.2053 3.03483 18.6288 2.72938 17.0706 2.36103C15.8515 2.07355 14.6325 1.96574 13.3859 2.00167C12.1485 2.02863 10.902 1.99269 9.6646 2.01964C9.11465 2.02863 8.5647 2.07355 8.02392 2.18135C6.10826 2.5497 4.20177 2.96296 2.29527 3.36724C2.19445 3.38521 2.03863 3.51099 2.03863 3.59184C2.0203 4.3465 2.02947 5.09217 2.02947 5.87378Z" fill="#323232"/>
<path d="M17.7309 7.87732C16.8784 7.87732 16.026 7.87732 15.1736 7.87732H12.0755H9.22498H1.38819C0.416613 7.87732 0.00415039 7.47304 0.00415039 6.51175V5.71217C0.00415039 4.76885 0.00415039 3.83452 0.00415039 2.8912C0.00415039 2.12756 0.315789 1.75023 1.07655 1.58852L1.23237 1.55258C3.56049 1.06745 5.98027 0.564343 8.35422 0.0702234C8.51921 0.0342874 8.71169 0.0163194 8.90417 0.0163194C9.45412 0.0163194 10.0041 0.0163194 10.5632 0.0073354C12.0755 -0.00164859 13.6429 -0.0106326 15.1919 0.0342874C15.8152 0.0522554 16.4293 0.195999 17.0343 0.330759C17.2267 0.375679 17.4284 0.420599 17.63 0.456535C18.7391 0.681135 19.8665 0.923703 20.9664 1.1483C21.6447 1.29205 22.3138 1.43579 22.9921 1.57055C23.8261 1.74125 24.1195 2.10061 24.1195 2.93612C24.1195 4.13997 24.1195 5.34383 24.1195 6.55667C24.1195 7.4371 23.6795 7.86833 22.7904 7.86833C21.0856 7.87732 19.4082 7.87732 17.7309 7.87732ZM12.0755 7.51796H15.1736C17.7034 7.51796 20.2331 7.51796 22.7721 7.51796C23.4687 7.51796 23.7345 7.24844 23.7345 6.56565C23.7345 5.3618 23.7345 4.15794 23.7345 2.9451C23.7345 2.28029 23.5603 2.06467 22.9004 1.92991C22.2221 1.78617 21.553 1.65141 20.8747 1.50766C19.784 1.27408 18.6566 1.0405 17.5476 0.815895C17.3459 0.770975 17.1443 0.726055 16.9426 0.681135C16.3652 0.546375 15.7602 0.411615 15.1736 0.393647C13.6337 0.348727 12.0755 0.357711 10.5632 0.366695C10.0132 0.366695 9.45412 0.375679 8.90417 0.375679C8.73002 0.375679 8.5742 0.393647 8.42755 0.420599C6.0536 0.914719 3.64299 1.41782 1.31486 1.90296L1.15905 1.93889C0.563266 2.06467 0.370784 2.29825 0.370784 2.8912C0.370784 3.83452 0.370784 4.76885 0.370784 5.70319V6.50277C0.370784 7.25742 0.627427 7.50897 1.38819 7.50897H9.22498L12.0755 7.51796ZM22.2588 6.05357H1.84648V5.87389C1.84648 5.70319 1.84648 5.53249 1.84648 5.3618C1.84648 4.75089 1.84648 4.18489 1.85565 3.59195C1.86481 3.40329 2.10313 3.23259 2.25894 3.19665L2.30477 3.18767C4.16544 2.78339 6.0811 2.37013 7.97842 2.00178C8.48254 1.90296 9.03249 1.84905 9.6466 1.84007C10.2332 1.83109 10.8382 1.83109 11.4156 1.83109C12.0572 1.83109 12.7263 1.84007 13.3771 1.8221C14.697 1.78617 15.916 1.91194 17.1076 2.19045C18.3908 2.4959 19.7015 2.75644 20.9756 3.01697C21.2505 3.07088 21.5347 3.13377 21.8097 3.18767C22.0388 3.23259 22.268 3.33141 22.2588 3.70874C22.2496 4.22083 22.2496 4.72393 22.2496 5.26297C22.2496 5.46961 22.2496 5.67624 22.2496 5.88287V6.05357H22.2588ZM2.21312 5.69421H21.8922C21.8922 5.55046 21.8922 5.40672 21.8922 5.25399C21.8922 4.71495 21.8922 4.21185 21.9013 3.69077C21.9013 3.565 21.9013 3.55601 21.7455 3.52008C21.4705 3.46617 21.1864 3.40329 20.9114 3.34938C19.6374 3.08885 18.3175 2.82831 17.0343 2.52285C15.8702 2.25333 14.6786 2.12756 13.3954 2.16349C12.7355 2.18146 12.0755 2.17248 11.4248 2.17248C10.8473 2.17248 10.2515 2.16349 9.66494 2.18146C9.05999 2.19943 8.53754 2.25333 8.06092 2.34317C6.16359 2.7205 4.24793 3.13377 2.38727 3.53805L2.34144 3.54703C2.31394 3.55601 2.24978 3.59195 2.23145 3.62789C2.21312 4.20286 2.22228 4.75987 2.22228 5.3618C2.21312 5.46961 2.21312 5.57741 2.21312 5.69421Z" fill="#323232"/>
<path d="M12.0568 4.85871C11.3327 4.85871 10.6086 4.85871 9.88453 4.85871C9.27042 4.85871 8.83963 4.49037 8.83046 3.97828C8.8213 3.45721 9.26126 3.06191 9.88453 3.06191C11.3327 3.05293 12.7809 3.05293 14.2291 3.06191C14.8524 3.06191 15.3015 3.45721 15.2832 3.97828C15.274 4.49037 14.8341 4.85871 14.2291 4.85871C13.505 4.8677 12.7809 4.85871 12.0568 4.85871Z" fill="#323232"/>
<path d="M10.7461 5.04737C10.462 5.04737 10.1687 5.04737 9.88452 5.04737C9.17876 5.04737 8.6563 4.59817 8.64714 3.98726C8.63797 3.70875 8.74796 3.44822 8.94044 3.24159C9.16959 3.008 9.50873 2.88223 9.88452 2.88223C11.3236 2.87324 12.7901 2.87324 14.2291 2.88223C14.6049 2.88223 14.9441 3.008 15.1732 3.24159C15.3657 3.43923 15.4757 3.69977 15.4665 3.98726C15.4482 4.58919 14.9257 5.03839 14.2291 5.03839C13.725 5.03839 13.2209 5.03839 12.7076 5.03839H12.0568H11.4061C11.1769 5.03839 10.9569 5.04737 10.7461 5.04737ZM12.0568 4.67903H12.7168C13.2209 4.67903 13.725 4.67903 14.2291 4.67903C14.7424 4.67903 15.0907 4.39154 15.0999 3.96929C15.109 3.78063 15.0357 3.61891 14.9074 3.48415C14.7424 3.32244 14.5041 3.2326 14.22 3.2326C12.7809 3.22362 11.3144 3.22362 9.87536 3.2326C9.59122 3.2326 9.35291 3.32244 9.18792 3.48415C9.0596 3.61891 8.99544 3.78063 8.99544 3.96929C9.0046 4.39154 9.36207 4.67903 9.86619 4.67903C10.3703 4.67903 10.8744 4.67903 11.3786 4.67903H12.0568Z" fill="#323232"/>
</svg>
