<svg width="35" height="35" viewBox="0 0 35 35" fill="none" xmlns="http://www.w3.org/2000/svg">
<path d="M17.8175 0C18.3651 0.19859 18.6321 0.602617 18.6321 1.171C18.6389 2.972 18.6389 4.773 18.6321 6.57401C18.6321 7.25195 18.1666 7.71761 17.5573 7.745C16.9412 7.7724 16.3867 7.20402 16.4346 6.6014C16.462 6.2864 16.4209 5.96454 16.4209 5.64954C16.4209 4.19778 16.4278 2.74602 16.4141 1.30111C16.4073 0.698488 16.6195 0.246525 17.2013 0.00684793C17.4067 0 17.6121 0 17.8175 0Z" fill="#323232"/>
<path d="M17.4888 25.5427C13.1487 25.57 9.48628 21.9543 9.4589 17.5511C9.43152 13.1342 12.9844 9.41579 17.5504 9.40895C21.8905 9.4021 25.5324 13.011 25.5871 17.3388C25.6487 21.9201 21.9179 25.5974 17.4888 25.5427ZM17.523 23.3513C20.7473 23.3582 23.4034 20.756 23.3897 17.4758C23.3692 14.1477 20.7678 11.6208 17.5367 11.6071C14.1687 11.5934 11.629 14.3258 11.6495 17.5306C11.67 20.7354 14.3056 23.3582 17.523 23.3513Z" fill="#323232"/>
<path d="M16.4209 31.1786C16.4209 30.2815 16.4346 29.3912 16.4141 28.4942C16.3935 27.4944 17.2287 27.0356 17.9406 27.3232C18.4061 27.5081 18.6252 27.8916 18.6252 28.3641C18.6389 30.1993 18.6389 32.0345 18.6252 33.8698C18.6184 34.5546 18.1323 35.0134 17.482 34.9997C16.859 34.986 16.4415 34.5409 16.4346 33.8561C16.4278 32.959 16.4346 32.0688 16.4346 31.1717C16.4278 31.1786 16.4278 31.1786 16.4209 31.1786Z" fill="#323232"/>
<path d="M31.1321 18.5845C30.2079 18.5845 29.2838 18.5914 28.3665 18.5845C27.9078 18.5845 27.5382 18.386 27.3533 17.9616C27.1822 17.5645 27.2096 17.1606 27.4902 16.8046C27.7093 16.524 28.0105 16.4076 28.3528 16.4076C30.2011 16.4076 32.0426 16.4007 33.8909 16.4076C34.548 16.4076 34.993 16.832 34.9999 17.4345C35.0067 18.119 34.6234 18.5572 33.9319 18.5709C33.0009 18.5982 32.0631 18.5845 31.1321 18.5845Z" fill="#323232"/>
<path d="M3.85239 18.5845C2.92823 18.5845 2.00408 18.5914 1.07992 18.5845C0.593882 18.5777 0.196837 18.297 0.059925 17.8794C-0.0906783 17.4207 0.0462338 16.8868 0.429588 16.6266C0.614419 16.5034 0.867706 16.4213 1.09361 16.4144C2.92823 16.4007 4.7697 16.4007 6.60432 16.4076C7.31626 16.4076 7.76807 16.8594 7.75438 17.5166C7.74069 18.1532 7.28204 18.5777 6.59063 18.5845C5.68017 18.5845 4.76285 18.5845 3.85239 18.5845Z" fill="#323232"/>
<path d="M29.8931 28.6517C29.8178 29.2064 29.6398 29.542 29.2427 29.7337C28.8183 29.9392 28.3939 29.9049 28.0721 29.5831C27.0521 28.597 26.0527 27.5972 25.0669 26.5837C24.6699 26.1796 24.7315 25.488 25.1354 25.0977C25.5461 24.6936 26.1964 24.6594 26.614 25.0634C27.6066 26.0221 28.5856 26.9945 29.5439 27.9875C29.7356 28.1861 29.8178 28.4874 29.8931 28.6517Z" fill="#323232"/>
<path d="M10.2941 25.9398C10.1572 26.1863 10.0682 26.4808 9.8765 26.6794C8.95234 27.6381 8.00765 28.5763 7.05611 29.5076C6.57692 29.9732 5.8992 29.9595 5.47478 29.5144C5.05719 29.0762 5.07773 28.3914 5.53639 27.9257C6.46739 26.9875 7.39839 26.0562 8.33624 25.1249C8.68537 24.7825 9.10295 24.7003 9.5616 24.8715C9.95865 25.0222 10.2256 25.4536 10.2941 25.9398Z" fill="#323232"/>
<path d="M29.9409 6.3C29.804 6.54653 29.7082 6.84099 29.5165 7.03958C28.5992 7.99144 27.6613 8.92276 26.7166 9.84723C26.2306 10.3197 25.5734 10.3129 25.1284 9.87462C24.6835 9.4295 24.7109 8.74471 25.1969 8.25851C26.1211 7.33404 27.0452 6.40272 27.9762 5.47825C28.3185 5.13586 28.7361 5.03999 29.1947 5.23173C29.6055 5.40293 29.8656 5.8001 29.9409 6.3Z" fill="#323232"/>
<path d="M10.2941 9.07339C10.2051 9.56644 9.99288 9.88829 9.58899 10.0869C9.16456 10.2992 8.74013 10.2444 8.41839 9.92938C7.40524 8.94328 6.40578 7.94348 5.42001 6.92999C5.05035 6.5465 5.09827 5.85486 5.47478 5.47138C5.87182 5.06735 6.54269 5.02626 6.96027 5.4166C7.57638 5.99182 8.1651 6.59444 8.76067 7.19021C9.15087 7.57369 9.54791 7.95033 9.90389 8.3612C10.075 8.55979 10.1709 8.83371 10.2941 9.07339Z" fill="#323232"/>
</svg>
