<svg width="35" height="35" viewBox="0 0 35 35" fill="none" xmlns="http://www.w3.org/2000/svg">
<path d="M1.1287 35C0.502785 35 0 34.4972 0 33.8713V1.1287C0 0.502785 0.502785 0 1.1287 0C1.75462 0 2.2574 0.502785 2.2574 1.1287V33.8713C2.2574 34.487 1.75462 35 1.1287 35Z" fill="#323232"/>
<path d="M33.8714 35C33.2455 35 32.7427 34.4972 32.7427 33.8713V1.1287C32.7427 0.502785 33.2455 0 33.8714 0C34.4973 0 35.0001 0.502785 35.0001 1.1287V33.8713C35.0001 34.487 34.487 35 33.8714 35Z" fill="#323232"/>
<path d="M33.8713 12.9903H1.1287C0.502785 12.9903 0 12.4875 0 11.8616C0 11.2357 0.502785 10.7329 1.1287 10.7329H33.8713C34.4972 10.7329 35 11.2357 35 11.8616C35 12.4875 34.487 12.9903 33.8713 12.9903Z" fill="#323232"/>
<path d="M33.8713 27.1401H1.1287C0.502785 27.1401 0 26.6373 0 26.0114C0 25.3855 0.502785 24.8827 1.1287 24.8827H33.8713C34.4972 24.8827 35 25.3855 35 26.0114C35 26.6373 34.487 27.1401 33.8713 27.1401Z" fill="#323232"/>
</svg>
