<svg class="fill" width="20" height="26" viewBox="0 0 20 26" fill="none" xmlns="http://www.w3.org/2000/svg">
<path d="M18.6613 1.41549C17.7883 1.41549 17.02 1.41549 16.2401 1.41549C14.9828 1.41549 13.714 1.41549 12.4568 1.41549C12.0028 1.41549 11.6885 1.21683 11.7001 0.69533C11.7001 0.211082 11.9912 0 12.4219 0C14.6918 0 16.9618 0 19.2317 0C19.7789 0 20 0.297998 20 0.844329C20 1.99907 20 3.16623 20 4.32098C20 4.89214 19.7207 5.14047 19.1968 5.14047C18.3238 5.12806 17.4623 5.14047 16.5194 5.14047C16.5194 6.04689 16.5544 6.89121 16.5078 7.73554C16.4845 8.14529 16.3565 8.59229 16.1469 8.92754C15.1575 10.4796 14.0981 11.9944 13.097 13.5341C12.8409 13.9314 12.5383 14.1177 12.0843 14.0928C11.3276 14.068 10.571 14.068 9.81433 14.0928C9.40691 14.1053 9.12753 13.9563 8.88307 13.5962C7.81212 11.9696 6.71788 10.3679 5.65857 8.74129C5.51888 8.51779 5.4374 8.20737 5.42575 7.94663C5.39083 7.1768 5.40247 6.41938 5.42575 5.64955C5.4374 5.26464 5.30935 5.14047 4.96012 5.15289C4.23839 5.17772 3.5283 5.16531 2.80658 5.15289C2.13141 5.14047 1.93352 4.94181 1.93352 4.23406C1.92187 3.1414 1.93352 2.03632 1.92188 0.943662C1.92188 0.459414 2.03828 0.062083 2.56212 0.0248332C3.01611 -0.0124166 3.24893 0.297998 3.26057 0.943662C3.27221 1.65141 3.29549 2.34674 3.24893 3.05448C3.214 3.60081 3.37697 3.76223 3.90081 3.76223C8.28939 3.72498 12.6896 3.72498 17.1015 3.72498C17.5089 3.72498 17.9163 3.74981 18.3238 3.71256C18.4518 3.70015 18.6497 3.48907 18.6613 3.3649C18.6846 2.74407 18.6613 2.12324 18.6613 1.41549ZM7.38141 8.86545C7.96345 9.74703 8.47564 10.5044 8.96456 11.2619C9.93074 12.7394 9.9191 12.7519 11.5721 12.6649C11.8049 12.6525 12.0959 12.4911 12.2356 12.2924C12.8642 11.4233 13.3764 10.4548 14.0516 9.6477C14.9828 8.51779 15.3786 7.27613 15.1807 5.79855C15.1807 5.77372 15.1807 5.7613 15.1807 5.73647C15.2506 5.26464 15.0643 5.14047 14.6336 5.14047C12.1658 5.16531 9.70957 5.15289 7.24172 5.15289C7.09039 5.15289 6.93906 5.17772 6.78773 5.19014C6.78773 5.95997 6.78773 6.69255 6.78773 7.46238C7.49782 7.46238 8.16134 7.46238 8.81323 7.46238C9.25558 7.46238 9.51167 7.69829 9.50003 8.18254C9.48839 8.64196 9.2323 8.85304 8.82487 8.86545C8.4058 8.87787 7.98673 8.86545 7.38141 8.86545Z" fill="#333333"/>
<path d="M7.03211 24.312C6.72945 24.1878 6.56648 24.1382 6.40351 24.0637C4.47114 23.2069 2.53876 22.3626 0.618031 21.5058C0.0825542 21.2699 -0.115339 20.885 0.0941951 20.4628C0.338652 19.9662 0.722798 20.0034 1.14187 20.1897C3.1208 21.0713 5.09974 21.9528 7.09032 22.822C7.46282 22.9834 7.70728 23.2566 7.56759 23.6663C7.46282 23.9395 7.18344 24.1257 7.03211 24.312Z" fill="#333333"/>
<path d="M9.04597 21.5054C8.9412 21.4061 8.66182 21.2695 8.58034 21.046C7.73056 18.9228 6.90406 16.7871 6.0892 14.639C5.93787 14.2417 6.04264 13.8816 6.43843 13.7202C6.83421 13.5588 7.1718 13.6829 7.33477 14.1299C8.14962 16.2532 8.97612 18.364 9.79098 20.4872C9.97723 21.0212 9.67457 21.493 9.04597 21.5054Z" fill="#333333"/>
<path d="M15.9025 14.2294C15.8093 14.5274 15.7744 14.6764 15.7162 14.8378C14.9363 16.8617 14.1447 18.8856 13.3648 20.8971C13.1902 21.3441 12.9108 21.5924 12.4684 21.4186C11.9912 21.2199 11.9562 20.8226 12.1308 20.3508C12.9341 18.2896 13.7256 16.2285 14.5172 14.1673C14.6685 13.7576 14.9712 13.5589 15.3437 13.7079C15.5765 13.7948 15.7395 14.068 15.9025 14.2294Z" fill="#333333"/>
<path d="M3.66804 16.7626C3.92413 16.9364 4.13367 17.0357 4.285 17.1972C5.55384 18.5257 6.81105 19.8667 8.06826 21.2077C8.51061 21.6795 8.56881 22.1514 8.21959 22.437C7.78888 22.7846 7.43965 22.586 7.10207 22.2259C5.84486 20.8601 4.55274 19.5191 3.30717 18.1408C3.13256 17.9422 3.06272 17.5448 3.10928 17.2717C3.13256 17.0978 3.44686 16.9612 3.66804 16.7626Z" fill="#333333"/>
<path d="M14.0631 22.7224C13.8536 22.5486 13.5509 22.412 13.516 22.2258C13.4695 21.9526 13.5393 21.5429 13.7139 21.3442C14.6103 20.326 15.5648 19.3451 16.4961 18.3642C16.8686 17.9669 17.2178 17.5696 17.6019 17.1722C17.9512 16.8121 18.4401 16.7625 18.6729 17.0853C18.9639 17.4702 18.8824 17.8427 18.5681 18.1904C17.2644 19.5686 15.9722 20.9593 14.6568 22.3375C14.5055 22.4741 14.3076 22.561 14.0631 22.7224Z" fill="#333333"/>
<path d="M3.55151 26C2.66681 26 1.78211 26 0.885765 26C0.338647 26 -0.0222178 25.7021 0.00106383 25.2552C0.0243454 24.6967 0.396851 24.6098 0.81592 24.6098C2.74829 24.5974 4.68067 24.5974 6.61304 24.585C7.07867 24.585 7.35805 24.8084 7.40461 25.2925C7.45118 25.7766 7.09031 25.9628 6.72945 25.9628C5.67013 26 4.61082 25.9752 3.55151 25.9752C3.55151 25.9876 3.55151 26 3.55151 26Z" fill="#333333"/>
<path d="M10.2681 18.6622C10.2681 17.7062 10.2681 16.7625 10.2681 15.8064C10.2681 15.3222 10.3845 14.9124 10.92 14.9248C11.4438 14.9248 11.5952 15.3098 11.5952 15.8064C11.5952 17.731 11.5952 19.6556 11.5952 21.5677C11.5952 22.0768 11.4322 22.4245 10.9084 22.4245C10.3962 22.412 10.2681 22.052 10.2681 21.5801C10.2681 20.5992 10.2681 19.6307 10.2681 18.6622Z" fill="#333333"/>
</svg>
