<svg class="fill" width="24" height="27" viewBox="0 0 24 27" fill="none" xmlns="http://www.w3.org/2000/svg">
<path d="M14.9641 13.4964C14.9311 15.3346 13.4465 16.7753 11.6154 16.7587C9.8008 16.7422 8.33264 15.2187 8.34914 13.4136C8.38213 11.5258 9.89978 10.0685 11.7474 10.1016C13.5784 10.1513 14.9971 11.6583 14.9641 13.4964ZM13.5949 13.4302C13.5949 12.4035 12.6711 11.4595 11.6484 11.4761C10.6586 11.4761 9.75131 12.3869 9.71832 13.3805C9.68533 14.4072 10.6091 15.3511 11.6319 15.3677C12.6546 15.3843 13.5949 14.4735 13.5949 13.4302Z" fill="#fff"/>
<path d="M7.72221 10.6315C7.68922 11.3602 7.16134 11.6086 6.56748 11.2608C4.91786 10.3334 3.30123 9.37296 1.66811 8.41248C1.22271 8.14752 0.711328 7.9488 0.348412 7.60104C0.133961 7.40232 0.166954 6.9552 0.0844727 6.624C0.381404 6.57432 0.793809 6.34248 0.991763 6.4584C3.11977 7.65072 5.21479 8.89272 7.29331 10.1347C7.50776 10.2506 7.62323 10.5322 7.72221 10.6315Z" fill="#fff"/>
<path d="M0.546394 20.5674C0.348439 20.3853 -0.0309731 20.17 0.00201929 20.0044C0.0515079 19.6732 0.232966 19.2592 0.496905 19.0936C2.04755 18.1497 3.63118 17.272 5.19832 16.3778C5.64372 16.1128 6.10561 15.8644 6.55101 15.5995C6.96341 15.3511 7.35932 15.3345 7.62326 15.7816C7.8872 16.2287 7.65625 16.5765 7.26034 16.8083C5.94065 17.5866 4.60446 18.3484 3.26827 19.1102C2.60842 19.491 1.93207 19.8719 1.25573 20.2528C1.05778 20.3356 0.859821 20.4184 0.546394 20.5674Z" fill="#fff"/>
<path d="M23.3936 7.20365C23.2946 7.31957 23.1461 7.60109 22.9152 7.73357C20.8862 8.92589 18.8241 10.0851 16.7786 11.2608C16.3662 11.4927 15.9703 11.5424 15.7064 11.0952C15.4424 10.6481 15.6734 10.3169 16.0858 10.0685C18.1313 8.89277 20.1603 7.70045 22.2059 6.52469C22.7997 6.21005 23.3606 6.47501 23.3936 7.20365Z" fill="#fff"/>
<path d="M23.3771 19.8389C23.4101 20.4185 22.7997 20.7 22.1729 20.3523C20.5563 19.4249 18.9396 18.481 17.3395 17.5371C16.9106 17.2887 16.4817 17.0403 16.0693 16.7753C15.6734 16.5269 15.4094 16.146 15.7559 15.7652C15.9373 15.5664 16.4982 15.4671 16.7291 15.5996C18.7912 16.7422 20.8202 17.9511 22.8657 19.1434C23.1297 19.2924 23.4266 19.4084 23.707 19.5243C23.5751 19.6236 23.4761 19.723 23.3771 19.8389Z" fill="#fff"/>
<path d="M10.9885 4.40496C10.9885 3.24576 10.9885 2.08656 10.9885 0.92736C10.9885 0.44712 11.0545 0.01656 11.6649 0C12.2752 0 12.3577 0.414 12.3577 0.9108C12.3412 3.19608 12.3412 5.48136 12.3412 7.7832C12.3412 8.29656 12.2587 8.7768 11.6319 8.76024C11.0545 8.74368 10.9885 8.28 10.9885 7.79976C10.9885 6.65712 10.9885 5.53104 10.9885 4.40496Z" fill="#fff"/>
<path d="M10.9885 22.4553C10.9885 21.3293 10.9885 20.2032 10.9885 19.0605C10.9885 18.5803 11.071 18.1332 11.6483 18.1166C12.2257 18.1001 12.3412 18.5306 12.3412 19.0274C12.3247 21.3458 12.3247 23.6642 12.3247 25.9661C12.3247 26.4629 12.1927 26.8603 11.6153 26.8603C11.071 26.8603 10.972 26.4629 10.972 25.9992C10.972 24.8234 10.972 23.6311 10.9885 22.4553C10.972 22.4553 10.972 22.4553 10.9885 22.4553Z" fill="#fff"/>
<path d="M9.81722 18.1001C8.90993 19.607 8.05213 21.0643 7.12834 22.4885C7.06236 22.6044 6.51798 22.5547 6.32003 22.4057C6.17156 22.3063 6.05609 21.8592 6.15507 21.6936C6.91389 20.3191 7.68921 18.9612 8.51402 17.6364C8.613 17.4873 9.0254 17.4045 9.22336 17.4708C9.4543 17.537 9.58627 17.8351 9.81722 18.1001Z" fill="#fff"/>
<path d="M17.2405 22.0579C17.125 22.1904 16.9766 22.5051 16.7786 22.5382C16.5312 22.5879 16.1023 22.5051 16.0033 22.3229C15.195 21.0147 14.4361 19.6899 13.7103 18.3319C13.6113 18.1498 13.7763 17.6364 13.9742 17.5205C14.1557 17.4046 14.7001 17.4708 14.8156 17.653C15.6404 18.9943 16.4157 20.3854 17.191 21.7764C17.224 21.8095 17.2075 21.8758 17.2405 22.0579Z" fill="#fff"/>
<path d="M9.70181 8.94242C9.60283 9.05834 9.47086 9.3233 9.2894 9.38954C9.07495 9.45578 8.64605 9.4061 8.56357 9.27362C7.72226 7.88258 6.93045 6.49154 6.17162 5.05082C6.08914 4.90178 6.28709 4.45466 6.45206 4.37186C6.683 4.2725 7.16139 4.30562 7.26037 4.45466C8.10168 5.82914 8.89349 7.2533 9.68531 8.6609C9.68531 8.71058 9.68531 8.76026 9.70181 8.94242Z" fill="#fff"/>
<path d="M14.3867 9.50545C13.7599 9.35641 13.4464 9.02521 13.7104 8.52841C14.4362 7.17049 15.228 5.84569 16.0528 4.55401C16.1683 4.37185 16.7457 4.27249 16.8941 4.38841C17.0921 4.55401 17.2406 5.06737 17.1416 5.26609C16.4652 6.55777 15.7229 7.79977 14.9641 9.05833C14.8156 9.27361 14.5517 9.38953 14.3867 9.50545Z" fill="#fff"/>
<path d="M4.10959 14.1091C3.43324 14.1091 2.7404 14.1091 2.06406 14.1091C1.58567 14.1091 1.25575 13.9435 1.23925 13.4136C1.22275 12.8671 1.58567 12.7347 2.06406 12.7347C3.44974 12.7347 4.85192 12.7015 6.2376 12.7678C6.50153 12.7843 6.74898 13.1818 6.99642 13.4136C6.74898 13.6455 6.51803 14.0263 6.2376 14.0595C5.52826 14.1754 4.81892 14.1091 4.10959 14.1091Z" fill="#fff"/>
<path d="M19.1871 14.1091C18.5108 14.1091 17.8179 14.1091 17.1416 14.1091C16.6467 14.1091 16.2673 13.8772 16.3662 13.397C16.4157 13.132 16.8446 12.7843 17.1086 12.7677C18.4943 12.7015 19.8964 12.7346 21.2821 12.7512C21.7605 12.7512 22.1564 12.9664 22.0409 13.4632C21.975 13.7282 21.579 14.0428 21.2986 14.076C20.6058 14.1753 19.8964 14.1091 19.1871 14.1091Z" fill="#fff"/>
</svg>
