<svg class="stroke" width="30" height="18" viewBox="0 0 30 18" fill="none" xmlns="http://www.w3.org/2000/svg">
<path d="M1 13.7859V3.68433C1.04553 2.78955 1.62828 1 3.59505 1C5.56183 1 6.14458 2.78955 6.1901 3.68433V13.7859C6.30392 14.8572 7.08471 17 9.29734 17C11.51 17 12.2908 14.8572 12.4046 13.7859V3.68433C12.4501 2.78955 13.0328 1 14.9996 1C16.9664 1 17.5491 2.78955 17.5947 3.68433V13.7859C17.6061 14.8572 18.2434 17 20.7019 17C23.1604 17 23.7978 14.8572 23.8091 13.7859V3.68433C23.7864 2.78955 24.2735 1 26.4042 1C28.5349 1 29.022 2.78955 28.9992 3.68433V13.7859" stroke="#333333" stroke-width="1.5" stroke-linecap="round" stroke-linejoin="round"/>
</svg>
