<svg width="33" height="19" viewBox="0 0 33 19" fill="none" xmlns="http://www.w3.org/2000/svg">
<path d="M32.1765 4.93374C31.3782 3.75655 30.2302 2.98426 28.9682 2.36192C26.8394 1.3122 24.5586 0.764848 22.2246 0.412441C19.3432 -0.022443 16.4541 -0.0974231 13.5499 0.112521C11.0562 0.292473 8.59294 0.68237 6.22089 1.47716C4.5559 2.03201 2.96693 2.73682 1.66687 3.9515C-0.499899 5.98346 -0.56072 8.69774 1.52242 10.8122C2.46516 11.7719 3.62077 12.4093 4.85241 12.9191C7.52856 14.0288 10.3568 14.4862 13.2306 14.7336C13.3978 14.7486 13.5727 14.7711 13.7704 14.8011C13.7704 16.2032 13.7704 17.5679 13.7704 19C16.4541 16.938 19.0847 14.9211 21.738 12.8816C19.0619 10.8272 16.4389 8.81021 13.74 6.74076C13.74 8.11289 13.74 9.38006 13.74 10.6622C13.6639 10.6697 13.6107 10.6847 13.5651 10.6772C11.3375 10.4823 9.13273 10.1748 7.03438 9.38756C6.21329 9.08014 5.41501 8.66775 4.70035 8.16538C3.92488 7.61803 3.92488 7.3406 4.68515 6.76325C5.21733 6.35836 5.82555 6.02095 6.44897 5.75102C8.62335 4.82877 10.9194 4.42387 13.2686 4.22143C16.667 3.92901 20.0502 4.04897 23.3954 4.77628C24.8703 5.0987 26.3148 5.51858 27.6225 6.29088C28.0102 6.51582 28.3448 6.83073 28.6793 7.13065C28.8998 7.3256 28.9074 7.58054 28.6793 7.78298C28.3828 8.05291 28.1015 8.37532 27.7518 8.54778C26.8546 8.97516 25.9423 9.37256 25.0072 9.70997C24.0644 10.0549 24.0492 10.0174 24.0492 10.9996C24.0492 12.0344 24.0492 13.0691 24.0492 14.1563C24.1709 14.1413 24.2393 14.1488 24.2925 14.1263C25.547 13.7439 26.8242 13.414 28.0483 12.9491C29.5612 12.3793 30.9373 11.5545 31.9636 10.2648C33.2637 8.63026 33.3473 6.65828 32.1765 4.93374Z" fill="#303030"/>
</svg>
