<svg width="21" height="21" viewBox="0 0 21 21" fill="none" xmlns="http://www.w3.org/2000/svg">
<path d="M0 0.0051458C1.08614 0.0051458 2.17228 0.0102916 3.25842 0C3.4077 0 3.48492 0.0360206 3.54669 0.180103C3.79892 0.761578 4.07689 1.33791 4.32397 1.91938C4.39089 2.08405 4.4887 2.09949 4.63283 2.09949C9.66202 2.09434 14.6964 2.09949 19.7256 2.09949C19.8131 2.09949 19.9057 2.09949 19.9932 2.10463C20.6521 2.15094 21.0382 2.58834 20.997 3.247C20.9919 3.33448 20.9661 3.4271 20.9249 3.49914C20.3278 4.55918 19.7256 5.60892 19.1336 6.66895C18.4387 7.90909 17.7386 9.14408 17.0745 10.3945C16.6421 11.2024 15.9833 11.5523 15.0927 11.5523C12.627 11.5472 10.1562 11.5523 7.69049 11.5472C7.51548 11.5472 7.42282 11.5935 7.34561 11.753C7.10367 12.2367 6.84629 12.7101 6.59406 13.1835C6.43448 13.4923 6.52714 13.6518 6.87203 13.6518C10.7893 13.6518 14.7067 13.6518 18.624 13.6518C18.7115 13.6518 18.799 13.6518 18.8968 13.6518C18.8968 14.3516 18.8968 15.0309 18.8968 15.7461C18.835 15.7461 18.7681 15.7461 18.7063 15.7461C14.5831 15.7461 10.4599 15.7461 6.34183 15.7461C5.18362 15.7461 4.2725 14.8868 4.21587 13.7393C4.19014 13.271 4.29823 12.813 4.52988 12.4014C4.94683 11.6707 5.37408 10.9503 5.80133 10.2247C5.8631 10.1166 5.86825 10.0343 5.81677 9.92624C4.5968 7.37393 3.38196 4.81132 2.17228 2.25386C2.11566 2.14065 2.05389 2.09434 1.9252 2.09949C1.28175 2.10463 0.638301 2.09949 0 2.09949C0 1.39966 0 0.699829 0 0.0051458Z" fill="#323232"/>
<path d="M6.02782 21C5.62116 20.9022 5.24539 20.7478 4.91594 20.47C3.86069 19.59 4.00482 17.8147 5.19391 17.1201C6.55802 16.3276 8.16922 17.1149 8.38027 18.6792C8.51926 19.6981 7.74712 20.7427 6.71245 20.9537C6.66098 20.964 6.6095 20.9794 6.55802 20.9948C6.38815 21 6.20799 21 6.02782 21Z" fill="#323232"/>
<path d="M16.534 21C16.1273 20.9022 15.7516 20.7478 15.4221 20.47C14.3669 19.59 14.511 17.8147 15.7001 17.1201C17.0642 16.3276 18.6754 17.1149 18.8864 18.6792C19.0254 19.6981 18.2533 20.7427 17.2186 20.9537C17.1671 20.964 17.1157 20.9794 17.0642 20.9948C16.8892 21 16.709 21 16.534 21Z" fill="#323232"/>
</svg>
