<svg width="28" height="38" viewBox="0 0 28 38" fill="none" xmlns="http://www.w3.org/2000/svg">
<path d="M26.8225 38C18.2721 38 9.72787 38 1.17745 38C0.221929 37.6419 0 36.9256 0 35.9786C0.0184941 26.1083 0.0123294 16.2319 0.0123294 6.36166C0.0123294 4.78339 0.0123294 3.20511 0.0123294 1.62684C0.0123294 1.17157 0.110964 0.752716 0.462351 0.443131C0.671951 0.261022 0.937032 0.145687 1.17745 0C7.46543 0 13.7534 0 20.0414 0C20.1708 0.109265 20.3188 0.20639 20.4298 0.333866C21.5764 1.6147 22.7169 2.89553 23.8573 4.18243C25.0718 5.54824 26.2801 6.9262 27.513 8.27987C27.8459 8.64409 28 9.01438 28 9.5C27.9877 18.4051 27.9877 27.3163 27.9877 36.2214C27.9877 36.4096 27.9753 36.6038 27.9507 36.792C27.889 37.2048 27.6609 37.5204 27.3034 37.739C27.1493 37.8361 26.9828 37.915 26.8225 38ZM19.055 1.48722C18.9133 1.48722 18.79 1.48722 18.6728 1.48722C13.0753 1.48722 7.4716 1.48722 1.87406 1.48115C1.57816 1.48115 1.49802 1.56006 1.49802 1.85144C1.50418 9.54856 1.50418 17.2518 1.50418 24.9489C1.50418 25.0581 1.50418 25.1674 1.50418 25.2827C9.85733 25.2827 18.1673 25.2827 26.502 25.2827C26.502 25.1553 26.502 25.0581 26.502 24.955C26.502 20.038 26.502 15.1211 26.5081 10.2042C26.5081 9.90671 26.4218 9.8278 26.1259 9.83387C24.0916 9.84601 22.0572 9.83994 20.0229 9.83994C19.3016 9.83994 19.055 9.59713 19.055 8.89904C19.055 6.56198 19.055 4.22492 19.055 1.88786C19.055 1.76645 19.055 1.65112 19.055 1.48722ZM12.8102 27.0249C12.2616 27.0674 11.4725 27.1342 10.6896 27.1888C10.4861 27.201 10.3998 27.2677 10.406 27.4802C10.4122 30.2725 10.4122 33.0588 10.406 35.8511C10.406 36.0332 10.4553 36.1182 10.6587 36.1364C12.1444 36.2821 13.6301 36.3489 15.0973 35.9847C16.5029 35.6326 17.594 34.8799 18.1427 33.5019C18.568 32.4518 18.6358 31.3652 18.4077 30.2604C18.155 29.0463 17.4461 28.1661 16.3241 27.6077C15.2884 27.0978 14.1726 27.0553 12.8102 27.0249ZM4.56187 33.0224C5.29546 32.9435 5.98591 32.907 6.6517 32.7796C7.90313 32.5428 8.74769 31.8265 9.00661 30.5639C9.21004 29.5927 9.03743 28.7003 8.30383 27.9597C7.81066 27.462 7.19419 27.2374 6.5284 27.1342C5.23998 26.9399 3.9454 27.0431 2.66314 27.207C2.59533 27.2192 2.49053 27.3891 2.49053 27.4863C2.48437 30.2786 2.48437 33.0709 2.4782 35.8633C2.4782 36.1182 2.57067 36.1728 2.79877 36.1668C3.18714 36.1546 3.58168 36.1668 3.97006 36.1607C4.64201 36.1546 4.54954 36.2518 4.54954 35.578C4.56187 34.716 4.56187 33.8479 4.56187 33.0224ZM25.5095 28.7853C25.5095 28.2936 25.4971 27.8323 25.5156 27.3709C25.5218 27.1524 25.4355 27.0978 25.2259 27.0978C23.5429 27.1038 21.86 27.1038 20.1708 27.0978C19.9366 27.0978 19.8749 27.1767 19.8749 27.3952C19.8811 30.224 19.8811 33.0588 19.8749 35.8875C19.8749 36.1243 19.9612 36.1789 20.1832 36.1789C20.6887 36.1668 21.188 36.1668 21.6935 36.1789C21.9278 36.185 21.9894 36.1 21.9894 35.8815C21.9771 34.892 21.9833 33.8965 21.9833 32.907C21.9833 32.7917 21.9833 32.6764 21.9833 32.5367C22.1435 32.5367 22.2545 32.5367 22.3716 32.5367C23.2347 32.5367 24.0978 32.5246 24.9608 32.5428C25.2259 32.5489 25.2999 32.4578 25.2875 32.215C25.269 31.8629 25.269 31.5048 25.2875 31.1527C25.2999 30.916 25.2197 30.8371 24.9731 30.8371C24.1594 30.8492 23.3518 30.8431 22.5381 30.8431C22.3655 30.8431 22.1929 30.8431 22.0079 30.8431C22.0079 30.145 22.0079 29.4834 22.0079 28.7853C23.173 28.7853 24.3197 28.7853 25.5095 28.7853Z" fill="#303030"/>
<path d="M10.2774 8.65638C10.2589 8.91133 10.2219 9.29376 10.2096 9.67619C10.2034 9.77331 10.2589 9.89472 10.3329 9.96149C11.7507 11.2059 13.1563 12.4564 14.5988 13.6704C15.4619 14.3989 16.3681 15.0787 17.2681 15.7708C17.4099 15.874 17.6133 15.9407 17.7921 15.9468C19.1484 15.9832 20.5046 15.9711 21.8546 16.0379C22.6314 16.0743 23.3712 16.3049 23.9383 16.8877C24.4808 17.4462 24.6041 18.2535 24.2527 18.9941C23.8828 19.7711 23.2479 20.1414 22.4218 20.111C21.6389 20.0867 21.0163 19.7225 20.3998 19.3037C19.3703 18.5995 18.3469 17.8954 17.3174 17.2033C17.2003 17.1244 17.0339 17.0819 16.8921 17.088C15.2091 17.1912 13.5385 17.3672 11.8925 17.7315C10.5671 18.0289 9.2787 18.4174 8.05193 19.0002C7.97179 19.0366 7.9163 19.158 7.87932 19.249C7.58341 20.0139 7.35532 20.803 6.99777 21.5375C6.61556 22.3267 6.00525 22.9216 5.09288 23.1219C4.17434 23.3283 3.49006 22.6787 3.55171 21.7561C3.61952 20.8091 4.199 20.2081 4.88328 19.68C5.46276 19.2369 6.07923 18.8363 6.6957 18.4356C6.8868 18.3142 6.98544 18.1807 7.04092 17.9743C7.57108 15.8133 8.10741 13.6583 8.64374 11.5033C8.73004 11.1513 8.79785 10.7931 8.90265 10.441C8.95813 10.2529 8.90265 10.1436 8.77319 10.0161C8.11974 9.40302 7.49094 8.76564 7.05941 7.97044C6.75118 7.4059 6.61556 6.81708 6.85598 6.19184C7.07174 5.62123 7.85466 5.11133 8.51428 5.11133C9.1739 5.11133 9.75338 5.53625 9.9938 6.19791C10.2589 6.9567 10.3267 7.73369 10.2774 8.65638ZM8.28002 17.6768C10.6781 16.7056 13.1501 16.3171 15.6776 16.0561C13.7296 14.411 11.8247 12.8024 9.90133 11.1755C9.365 13.3244 8.82868 15.4612 8.28002 17.6768ZM19.1545 17.088C19.136 17.1062 19.1237 17.1184 19.1052 17.1366C19.1484 17.1609 19.1977 17.1851 19.2347 17.2094C19.9621 17.6829 20.6834 18.1685 21.417 18.6299C21.6574 18.7816 21.9225 18.903 22.1937 18.9759C22.6437 19.0912 22.9581 18.9698 23.1431 18.6724C23.476 18.1442 23.3033 17.5615 22.6992 17.3794C22.2184 17.2337 21.7067 17.1366 21.2012 17.1002C20.5231 17.0516 19.8388 17.088 19.1545 17.088ZM9.07526 8.80814C9.23555 8.28002 9.15541 7.20558 8.94581 6.64104C8.82251 6.30111 8.66223 6.19184 8.39098 6.25254C8.0211 6.33146 7.79917 6.58641 7.87932 6.9142C7.94713 7.19344 8.05193 7.47874 8.21221 7.71548C8.4588 8.08577 8.76086 8.41357 9.07526 8.80814ZM4.723 22.0171C5.4381 22.1446 6.35664 20.712 6.43678 19.935C5.51824 20.5056 4.42709 21.3797 4.723 22.0171Z" fill="#303030"/>
<path d="M12.5327 34.6008C12.5265 34.4794 12.5203 34.3883 12.5203 34.3033C12.5203 32.5369 12.5265 30.7644 12.5142 28.9979C12.5142 28.7308 12.5882 28.6458 12.8533 28.6458C13.4761 28.6398 14.0988 28.6034 14.7031 28.834C15.6157 29.18 16.0966 29.872 16.257 30.7826C16.3926 31.5292 16.3248 32.2759 16.0411 32.9861C15.6465 33.9816 14.8511 34.4733 13.809 34.6008C13.4021 34.6433 12.9828 34.6008 12.5327 34.6008Z" fill="#303030"/>
<path d="M4.58643 28.6459C5.04888 28.6459 5.48667 28.6095 5.92446 28.6519C6.4979 28.7066 6.8802 29.0829 6.99119 29.5928C7.12067 30.1938 6.88636 30.7887 6.41774 31.0801C5.94912 31.3715 5.21536 31.4625 4.59259 31.3047C4.58643 30.4306 4.58643 29.5504 4.58643 28.6459Z" fill="#303030"/>
</svg>
