<svg width="30" height="30" viewBox="0 0 30 30" fill="none" xmlns="http://www.w3.org/2000/svg">
<path d="M30 14.126C30 14.7085 30 15.2976 30 15.8801C29.9799 15.9805 29.9598 16.0876 29.9464 16.188C29.8526 16.8307 29.799 17.4868 29.6584 18.1228C28.8746 21.7246 27.0258 24.6771 24.0917 26.8997C20.4409 29.6647 16.3279 30.5819 11.8464 29.6446C8.25591 28.8948 5.34196 27.0202 3.11128 24.1147C0.699736 20.9815 -0.298376 17.4199 0.0767536 13.4967C0.384895 10.3167 1.61746 7.51157 3.73426 5.11483C6.05872 2.49047 8.95258 0.85024 12.4091 0.234318C12.9718 0.133896 13.5479 0.0803377 14.1173 0C14.7001 0 15.2896 0 15.8724 0C15.9461 0.0133896 16.0197 0.0401688 16.1001 0.0468636C18.4447 0.214234 20.6419 0.883715 22.6448 2.10886C26.5301 4.49222 28.9215 7.91996 29.7655 12.4122C29.8727 12.9879 29.9263 13.5637 30 14.126ZM26.7176 15.0298C26.7243 8.58274 21.4591 3.30054 15.0149 3.29385C8.57075 3.28046 3.28545 8.54927 3.27205 14.9897C3.26535 21.4368 8.53056 26.7123 14.9747 26.7257C21.4256 26.7324 26.7109 21.4702 26.7176 15.0298Z" fill="white"/>
<path d="M13.7618 12.1313C13.7618 10.9865 13.7551 9.84839 13.7685 8.70358C13.7752 8.1613 14.0565 7.773 14.5522 7.57216C15.0479 7.36462 15.5101 7.46504 15.9054 7.82656C16.2068 8.10105 16.3006 8.45587 16.3006 8.85756C16.2939 10.7924 16.3006 12.7205 16.2939 14.6553C16.2939 14.9097 16.3542 15.0904 16.5417 15.2712C17.8949 16.6101 19.2413 17.9558 20.5878 19.3015C21.1438 19.8571 21.1907 20.5735 20.7151 21.1091C20.2863 21.5978 19.5495 21.6848 19.0203 21.2965C18.9131 21.2162 18.8126 21.1224 18.7188 21.022C17.2384 19.5492 15.7647 18.0629 14.2843 16.5968C13.9359 16.2553 13.7618 15.867 13.7685 15.3783C13.7685 14.3004 13.7551 13.2159 13.7618 12.1313C13.7618 12.1313 13.7551 12.1313 13.7618 12.1313Z" fill="white"/>
</svg>
